<?xml version="1.0" encoding="utf-8"?>
<!-- Generator: Adobe Illustrator 21.1.0, SVG Export Plug-In . SVG Version: 6.00 Build 0)  -->
<svg version="1.1" id="Layer_1" xmlns="http://www.w3.org/2000/svg" xmlns:xlink="http://www.w3.org/1999/xlink" x="0px" y="0px"
	 viewBox="0 0 940 659" style="enable-background:new 0 0 940 659;" xml:space="preserve">
<style type="text/css">
	.st0{fill:#869AB8;}
</style>
<path class="st0" d="M817.4,409.5c-24.3,29.6-54.7,53.8-89,70.8c-34.8,17.7-72.9,26-115,26c-36.4,0-70.1-6.7-101.6-20
	c-30.7-12.8-58.9-31.1-83-54c-23.6-22.8-42.4-50-55.2-80.2c-13.6-31-20.5-64.5-20.4-98.4l37.6-81.8l39.7,86.2l38.7,82.4
	c15,20,33.8,36.9,55.3,49.7c7.7,5,16,9.4,24.9,13.3c20.4,8.9,42.4,13.4,64.6,13.2c29.9,0,57-6.6,80.2-20.4
	c23.1-13.6,42.9-32.1,58-54.2L817.4,409.5L817.4,409.5z M450,51.4C495.8,17.4,551.5-0.7,608.5,0c42,0,80.2,8.8,115,26
	c33.4,16.5,63,39.9,86.8,68.5L745,161.4c-15-21.6-34.9-39.4-58-52c-24-13.3-51-20.2-78.5-19.9c-22.6,0-44.2,4.5-64.6,13.3
	c-19.6,8.4-37.4,20.4-52.6,35.4L450,51.4z"/>
<path class="st0" d="M474.8,335L436,252l-45.9-98.9L226,505.1H122L353,16.6h74.1l186.3,394C559.8,409,504.5,375.8,474.8,335
	L474.8,335z"/>
<path class="st0" d="M104,657.2H83.4l-8.9-18.8L60.8,608L52,588.6l-9,18.8L23.2,650l-3.3,7.2H0L44.8,562H59l44.8,95L104,657.2z
	 M176.3,657.2H114V562h62.4v15.5h-44.8v22.6h44.3v15h-44.3v26h44.8v16L176.3,657.2z M254.8,657.2h-64.1V562h18.8v76.8h45.3v18.3
	L254.8,657.2z M330,657.2h-64.7V562H284v76.8h45.3v18.3h0.6L330,657.2z M436.6,657.2h-20.4l-6.1-12.8l-2.8-6l-16-34.3l-7.2-15.5
	l-16,34.3l-10,21.5l-6,12.8h-20.5l44.8-95.1h14.4L436.6,657.2L436.6,657.2z M569.8,640c-4.8,5.6-10.6,10.3-17.1,13.8
	c-6.6,3.4-14.4,5-22.7,5c-7.1,0-13.8-1-19.9-3.9c-11.8-5.1-21.4-14.4-27-26c-2.8-6-4-12-4-19.3c-0.2-13.2,5.3-25.9,15-34.8
	c4.4-4.4,10-7.7,16-10.5c6.1-2.8,12.8-3.9,20-3.9c8.2,0,15.4,1.7,22.6,5c6.5,3.3,12.3,7.8,17.1,13.3l-12.7,13.2
	c-2.8-4.4-6.8-7.9-11.6-10c-8.8-4.6-19.1-5-28.2-1.1c-3.8,1.7-7.4,4-10.5,6.7c-2.8,3-5.3,6.4-7.2,10c-1.7,3.8-2.6,7.9-2.7,12.1
	c0,4.4,1,8.3,2.7,12.2s3.9,7.2,7.2,10c2.8,2.7,6.1,4.9,10.5,6.6c3.9,1.6,8.3,2.7,12.7,2.7c6.1,0,11-1,15.5-3.8
	c4.4-2.8,8.3-6.1,11-10.5L569.8,640L569.8,640z M651.1,657.2h-20.5l-6.6-21.6c-0.6-2.2-1.7-4.4-2.8-6.6c-0.8-2-2.1-3.7-3.8-5
	c-1.5-1.6-3.5-2.8-5.6-3.3c-2.3-0.7-4.8-1-7.2-1.1H598v37.6h-18.2V562h37.6c3.8,0,7.7,0.5,11,2.2s6.6,3.3,8.9,5.5
	c2.7,2.2,4.4,5.6,6,8.9c1.7,3.3,2.2,7.2,2.2,11c0,2.8-0.5,5.6-1,8.3c-1.2,2.8-2.3,5-4,7.2c-1.5,2.2-3.4,4.3-5.5,6
	c-2.2,1.7-4.6,3-7.1,4c2.7,1,5.5,2.7,7.1,5c1.7,2.1,3.4,4.3,4.5,7.7c0.5,1,1,2.7,1.6,3.8s1.1,2.8,1.7,4.5l1.6,5
	c0.6,1.9,1.4,3.7,2.3,5.5l2.2,6.6C649.4,654.2,649.9,655.9,651.1,657.2L651.1,657.2z M627.3,590.8c0-2.2-0.5-4.4-1.1-6l-3.3-5
	l-5-3.3c-2.2-0.6-3.9-1.1-6-1.1h-13.3v29.8h13.2c2.2,0,4.5-0.6,6.1-1.1c2.2-0.6,3.9-1.7,5-2.8c1.6-1.1,2.7-2.6,3.3-4.4
	c0.6-1.6,1.1-3.9,1.1-6V590.8z M725.1,657.2h-62.4V562H725v15.5h-44.7v22.6h44.2v15h-44.2v26H725v16L725.1,657.2z M824.1,609.6
	c0.1,12.3-4.4,24.1-12.7,33.2c-3.9,4.4-8.9,7.9-14.4,10c-5.7,2.7-12,4-18.3,3.8H739v-95h39.7c6.3-0.2,12.6,1.1,18.3,3.8
	c5.5,2.8,10.5,6,14.4,10c3.8,4.4,7.1,9.4,9.4,14.9C823,596.5,824.1,603,824.1,609.6L824.1,609.6z M805.3,609.1
	c0-4.5-0.6-8.9-2.2-12.7c-1.5-3.8-3.5-7.3-6.1-10.5c-2.8-2.8-6-5.6-10-7.2c-4.2-1.8-8.7-2.8-13.2-2.8h-16v65.8h16
	c5,0,9.4-0.6,13.2-2.2c4-1.7,7.2-3.9,10-6.7c2.8-2.7,5-6,6-10C804.2,618.5,805.3,614,805.3,609.1L805.3,609.1z M856.7,657.1h-18.3
	v-95h18.3V657.1z M939.6,578.7h-26v78.5h-18.8v-78.5h-26V562h70.8v16.6V578.7z"/>
</svg>
