<?xml version="1.0" encoding="utf-8"?>
<!-- Generator: Adobe Illustrator 21.1.0, SVG Export Plug-In . SVG Version: 6.00 Build 0)  -->
<svg version="1.1" id="Layer_1" xmlns="http://www.w3.org/2000/svg" xmlns:xlink="http://www.w3.org/1999/xlink" x="0px" y="0px"
	 viewBox="0 0 719.7 180.9" style="enable-background:new 0 0 719.7 180.9;" xml:space="preserve">
<style type="text/css">
	.st0{fill:#869AB8;}
</style>
<g id="Page-1">
	<g id="ariga-deliverables">
		<g id="Group-53">
			<path id="Fill-40" class="st0" d="M146.2,67.4h28.4V38.6h-28.4V67.4z"/>
			<path id="Fill-42" class="st0" d="M0,139.2h26.9v-28.8H0V139.2z"/>
			<path id="Fill-43" class="st0" d="M34.7,180.9h28.9V75.3H34.7V180.9z"/>
			<path id="Fill-44" class="st0" d="M109.6,180.9h28.9V147h-28.8C109.6,147,109.6,180.9,109.6,180.9z"/>
			<path id="Fill-45" class="st0" d="M0,67.4h101.8V38.6H0V67.4z"/>
			<path id="Fill-46" class="st0" d="M109.6,102.5h28.9V0h-28.8C109.6,0,109.6,102.5,109.6,102.5z"/>
			<path id="Fill-47" class="st0" d="M71.3,139.2h103.3v-28.8H71.3V139.2z"/>
			<path id="Fill-48" class="st0" d="M315.6,112.4l-12.9-31.5l-12.9,31.5H315.6z M293.1,55.2h19.7l41.6,97.8h-22.3l-8.9-21.8h-41.1
				l-8.9,21.8h-21.8L293.1,55.2z"/>
			<path id="Fill-49" class="st0" d="M412.4,103c5.3,0,9.3-1.3,12.1-3.8c2.8-2.5,4.4-6.2,4.2-10V89c0-4.6-1.5-8.1-4.4-10.4
				c-3-2.3-7.1-3.5-12.3-3.5h-21.2V103L412.4,103z M369.4,55.9h44.4c12.3,0,21.7,3.3,28.3,9.9c5.5,5.5,8.3,12.9,8.3,22.2v0.3
				c0,7.9-1.9,14.3-5.8,19.2c-3.9,5-9.1,8.8-15,10.9l23.7,34.7h-25l-20.8-31.1h-16.8V153h-21.4L369.4,55.9z"/>
			<path id="Fill-50" class="st0" d="M470.7,153H492V55.9h-21.4L470.7,153L470.7,153z"/>
			<path id="Fill-51" class="st0" d="M563.1,154.7c-7.1,0.1-14.1-1.2-20.7-3.8c-6-2.3-11.5-5.9-16.1-10.4
				c-4.5-4.5-8.1-9.9-10.5-15.8c-2.5-6.4-3.8-13.2-3.8-20v-0.3c-0.2-20.2,11.9-38.5,30.5-46.3c6.5-2.7,13.4-4.1,20.4-4
				c4,0,7.9,0.3,11.9,0.9c3.4,0.6,6.7,1.4,9.9,2.6c3,1.1,5.9,2.5,8.6,4.2c2.7,1.7,5.3,3.6,7.8,5.7l-13.5,16.2
				c-1.8-1.5-3.6-2.9-5.6-4.2c-1.8-1.2-3.8-2.2-5.8-3c-2.1-0.9-4.2-1.5-6.4-1.9c-2.5-0.5-5.1-0.7-7.6-0.7c-3.8,0-7.5,0.8-10.9,2.4
				c-3.3,1.6-6.4,3.8-8.9,6.5c-2.6,2.8-4.6,6-6,9.6c-1.5,3.7-2.2,7.7-2.2,11.8v0.3c0,4.2,0.7,8.4,2.2,12.3c1.4,3.6,3.4,7,6.1,9.8
				c2.6,2.8,5.8,5,9.3,6.5c3.8,1.6,7.8,2.3,11.9,2.3c8,0,14.7-2,20.1-5.9v-14h-21.5V97.1h42.2v42.2c-5.4,4.5-11.4,8.2-17.8,10.9
				C579.2,153.3,571.2,154.8,563.1,154.7"/>
			<path id="Fill-52" class="st0" d="M680.8,112.4l-12.9-31.5L655,112.4H680.8z M658.4,55.2h19.7l41.6,97.8h-22.3l-8.9-21.8h-41.1
				l-8.9,21.8h-21.8L658.4,55.2z"/>
		</g>
	</g>
</g>
</svg>
