<svg width="163" height="44" viewBox="0 0 163 44" fill="none" xmlns="http://www.w3.org/2000/svg">
<path d="M72.832 17.64C72.832 19 72.352 20.176 71.392 21.168C70.432 22.144 69.032 22.848 67.192 23.28C68.184 23.552 68.936 24 69.448 24.624C69.96 25.232 70.216 25.936 70.216 26.736C70.216 28 69.816 29.096 69.016 30.024C68.232 30.952 67.08 31.672 65.56 32.184C64.04 32.68 62.208 32.928 60.064 32.928C59.264 32.928 58.624 32.904 58.144 32.856C58.128 33.304 57.936 33.64 57.568 33.864C57.2 34.088 56.728 34.2 56.152 34.2C55.576 34.2 55.176 34.072 54.952 33.816C54.744 33.56 54.656 33.184 54.688 32.688C54.832 30.448 55.112 28.104 55.528 25.656C55.944 23.192 56.472 20.816 57.112 18.528C57.224 18.128 57.448 17.848 57.784 17.688C58.12 17.528 58.56 17.448 59.104 17.448C60.08 17.448 60.568 17.72 60.568 18.264C60.568 18.488 60.52 18.744 60.424 19.032C60.008 20.28 59.592 21.976 59.176 24.12C58.76 26.248 58.464 28.28 58.288 30.216C59.056 30.28 59.68 30.312 60.16 30.312C62.4 30.312 64.04 29.992 65.08 29.352C66.136 28.696 66.664 27.864 66.664 26.856C66.664 26.152 66.36 25.56 65.752 25.08C65.16 24.6 64.16 24.336 62.752 24.288C62.432 24.272 62.208 24.192 62.08 24.048C61.952 23.904 61.888 23.672 61.888 23.352C61.888 22.888 61.984 22.512 62.176 22.224C62.368 21.936 62.72 21.784 63.232 21.768C64.368 21.736 65.392 21.568 66.304 21.264C67.232 20.96 67.96 20.536 68.488 19.992C69.016 19.432 69.28 18.784 69.28 18.048C69.28 17.12 68.824 16.392 67.912 15.864C67 15.32 65.6 15.048 63.712 15.048C62 15.048 60.344 15.272 58.744 15.72C57.144 16.152 55.784 16.704 54.664 17.376C54.152 17.68 53.72 17.832 53.368 17.832C53.08 17.832 52.856 17.736 52.696 17.544C52.552 17.336 52.48 17.08 52.48 16.776C52.48 16.376 52.56 16.032 52.72 15.744C52.896 15.456 53.304 15.128 53.944 14.76C55.288 13.992 56.864 13.392 58.672 12.96C60.48 12.528 62.328 12.312 64.216 12.312C67.112 12.312 69.272 12.8 70.696 13.776C72.12 14.752 72.832 16.04 72.832 17.64ZM74.9946 33.12C74.0026 33.12 73.2106 32.76 72.6186 32.04C72.0266 31.32 71.7306 30.376 71.7306 29.208C71.7306 27.928 72.0266 26.72 72.6186 25.584C73.2106 24.432 73.9946 23.512 74.9706 22.824C75.9626 22.12 77.0106 21.768 78.1146 21.768C78.4666 21.768 78.6986 21.84 78.8106 21.984C78.9386 22.112 79.0426 22.352 79.1226 22.704C79.4586 22.64 79.8106 22.608 80.1786 22.608C80.9626 22.608 81.3546 22.888 81.3546 23.448C81.3546 23.784 81.2346 24.584 80.9946 25.848C80.6266 27.688 80.4426 28.968 80.4426 29.688C80.4426 29.928 80.4986 30.12 80.6106 30.264C80.7386 30.408 80.8986 30.48 81.0906 30.48C81.3946 30.48 81.7626 30.288 82.1946 29.904C82.6266 29.504 83.2106 28.864 83.9466 27.984C84.1386 27.76 84.3546 27.648 84.5946 27.648C84.8026 27.648 84.9626 27.744 85.0746 27.936C85.2026 28.128 85.2666 28.392 85.2666 28.728C85.2666 29.368 85.1146 29.864 84.8106 30.216C84.1546 31.032 83.4586 31.72 82.7226 32.28C81.9866 32.84 81.2746 33.12 80.5866 33.12C80.0586 33.12 79.5706 32.944 79.1226 32.592C78.6906 32.224 78.3626 31.728 78.1386 31.104C77.3066 32.448 76.2586 33.12 74.9946 33.12ZM75.8586 30.696C76.2106 30.696 76.5466 30.488 76.8666 30.072C77.1866 29.656 77.4186 29.104 77.5626 28.416L78.4506 24C77.7786 24.016 77.1546 24.272 76.5786 24.768C76.0186 25.248 75.5706 25.888 75.2346 26.688C74.8986 27.488 74.7306 28.336 74.7306 29.232C74.7306 29.728 74.8266 30.096 75.0186 30.336C75.2266 30.576 75.5066 30.696 75.8586 30.696ZM94.0201 27.648C94.2281 27.648 94.3881 27.744 94.5001 27.936C94.6281 28.128 94.6921 28.392 94.6921 28.728C94.6921 29.368 94.5401 29.864 94.2361 30.216C93.5481 31.064 92.7961 31.76 91.9801 32.304C91.1641 32.848 90.2281 33.12 89.1721 33.12C85.9081 33.12 84.2761 30.824 84.2761 26.232C84.2761 25.528 84.3001 24.816 84.3481 24.096H83.4121C82.9321 24.096 82.6041 24.008 82.4281 23.832C82.2681 23.656 82.1881 23.376 82.1881 22.992C82.1881 22.096 82.5481 21.648 83.2681 21.648H84.6361C84.9081 19.888 85.3241 18.28 85.8841 16.824C86.4441 15.368 87.1161 14.208 87.9001 13.344C88.7001 12.48 89.5561 12.048 90.4681 12.048C91.1401 12.048 91.6681 12.344 92.0521 12.936C92.4361 13.528 92.6281 14.272 92.6281 15.168C92.6281 17.648 91.5881 19.808 89.5081 21.648H92.1961C92.4521 21.648 92.6361 21.704 92.7481 21.816C92.8601 21.928 92.9161 22.136 92.9161 22.44C92.9161 23.544 92.0121 24.096 90.2041 24.096H87.2761C87.2441 24.896 87.2281 25.52 87.2281 25.968C87.2281 27.632 87.4201 28.8 87.8041 29.472C88.2041 30.144 88.8281 30.48 89.6761 30.48C90.3641 30.48 90.9721 30.272 91.5001 29.856C92.0281 29.44 92.6521 28.816 93.3721 27.984C93.5641 27.76 93.7801 27.648 94.0201 27.648ZM89.8201 14.352C89.5801 14.352 89.3081 14.656 89.0041 15.264C88.7161 15.856 88.4361 16.688 88.1641 17.76C87.9081 18.816 87.6921 19.992 87.5161 21.288C88.4601 20.472 89.1641 19.56 89.6281 18.552C90.1081 17.528 90.3481 16.6 90.3481 15.768C90.3481 14.824 90.1721 14.352 89.8201 14.352ZM97.3219 33.12C95.7539 33.12 94.5299 32.68 93.6499 31.8C92.7859 30.904 92.3539 29.728 92.3539 28.272C92.3539 26.976 92.6099 25.84 93.1219 24.864C93.6339 23.888 94.2979 23.136 95.1139 22.608C95.9299 22.08 96.7859 21.816 97.6819 21.816C98.5619 21.816 99.2419 22.08 99.7219 22.608C100.218 23.12 100.466 23.784 100.466 24.6C100.466 25.272 100.314 25.84 100.01 26.304C99.7219 26.768 99.3379 27 98.8579 27C98.5539 27 98.3059 26.928 98.1139 26.784C97.9379 26.64 97.8499 26.44 97.8499 26.184C97.8499 26.072 97.8659 25.944 97.8979 25.8C97.9299 25.656 97.9539 25.552 97.9699 25.488C98.0499 25.248 98.0899 25.024 98.0899 24.816C98.0899 24.608 98.0339 24.448 97.9219 24.336C97.8259 24.224 97.6819 24.168 97.4899 24.168C97.1219 24.168 96.7779 24.336 96.4579 24.672C96.1379 24.992 95.8819 25.432 95.6899 25.992C95.4979 26.552 95.4019 27.168 95.4019 27.84C95.4019 29.696 96.2099 30.624 97.8259 30.624C98.4819 30.624 99.1859 30.408 99.9379 29.976C100.706 29.528 101.458 28.864 102.194 27.984C102.386 27.76 102.602 27.648 102.842 27.648C103.05 27.648 103.21 27.744 103.322 27.936C103.45 28.128 103.514 28.392 103.514 28.728C103.514 29.336 103.362 29.832 103.058 30.216C102.306 31.144 101.402 31.864 100.346 32.376C99.3059 32.872 98.2979 33.12 97.3219 33.12ZM114.894 27.648C115.102 27.648 115.262 27.744 115.374 27.936C115.502 28.128 115.566 28.392 115.566 28.728C115.566 29.368 115.414 29.864 115.11 30.216C114.374 31.064 113.614 31.76 112.83 32.304C112.062 32.848 111.182 33.12 110.19 33.12C109.374 33.12 108.758 32.888 108.342 32.424C107.926 31.944 107.718 31.256 107.718 30.36C107.718 29.912 107.83 29.112 108.054 27.96C108.262 26.952 108.366 26.256 108.366 25.872C108.366 25.616 108.278 25.488 108.102 25.488C107.894 25.488 107.598 25.76 107.214 26.304C106.83 26.832 106.446 27.536 106.062 28.416C105.678 29.296 105.366 30.224 105.126 31.2C104.822 32.48 104.07 33.12 102.87 33.12C102.39 33.12 102.07 32.952 101.91 32.616C101.766 32.264 101.694 31.64 101.694 30.744C101.694 30.232 101.702 29.824 101.718 29.52L101.742 27.6C101.742 25.136 101.99 22.568 102.486 19.896C102.998 17.224 103.742 14.984 104.718 13.176C105.71 11.352 106.894 10.44 108.27 10.44C109.006 10.44 109.598 10.76 110.046 11.4C110.51 12.024 110.742 12.84 110.742 13.848C110.742 15.464 110.27 17.144 109.326 18.888C108.382 20.616 106.846 22.64 104.718 24.96C104.67 25.792 104.646 26.648 104.646 27.528C105.174 26.168 105.758 25.064 106.398 24.216C107.054 23.352 107.694 22.736 108.318 22.368C108.958 22 109.542 21.816 110.07 21.816C111.11 21.816 111.63 22.336 111.63 23.376C111.63 24 111.454 25.128 111.102 26.76C110.798 28.152 110.646 29.072 110.646 29.52C110.646 30.16 110.878 30.48 111.342 30.48C111.662 30.48 112.038 30.288 112.47 29.904C112.918 29.504 113.51 28.864 114.246 27.984C114.438 27.76 114.654 27.648 114.894 27.648ZM107.766 12.816C107.478 12.816 107.158 13.232 106.806 14.064C106.454 14.88 106.11 15.992 105.774 17.4C105.454 18.792 105.19 20.312 104.982 21.96C105.974 20.792 106.79 19.52 107.43 18.144C108.086 16.768 108.414 15.52 108.414 14.4C108.414 13.888 108.358 13.496 108.246 13.224C108.134 12.952 107.974 12.816 107.766 12.816ZM132.221 18.696C132.221 20.056 131.869 21.304 131.165 22.44C130.461 23.576 129.437 24.504 128.093 25.224C126.749 25.944 125.149 26.368 123.293 26.496L122.261 32.28C121.861 34.504 120.773 35.616 118.997 35.616C118.021 35.616 117.117 35.328 116.285 34.752C115.469 34.176 114.813 33.296 114.317 32.112C113.821 30.928 113.573 29.472 113.573 27.744C113.573 24.496 114.093 21.744 115.133 19.488C116.189 17.216 117.597 15.52 119.357 14.4C121.133 13.264 123.085 12.696 125.213 12.696C126.717 12.696 127.989 12.96 129.029 13.488C130.085 14.016 130.877 14.736 131.405 15.648C131.949 16.544 132.221 17.56 132.221 18.696ZM123.725 24.024C127.005 23.608 128.645 21.904 128.645 18.912C128.645 17.856 128.293 17 127.589 16.344C126.901 15.672 125.829 15.336 124.373 15.336C122.725 15.336 121.285 15.856 120.053 16.896C118.837 17.936 117.893 19.384 117.221 21.24C116.565 23.08 116.237 25.184 116.237 27.552C116.237 28.544 116.333 29.424 116.525 30.192C116.733 30.96 116.989 31.56 117.293 31.992C117.613 32.408 117.917 32.616 118.205 32.616C118.605 32.616 118.909 32.064 119.117 30.96L119.909 26.424C119.285 26.328 119.013 26.288 119.093 26.304C118.613 26.224 118.301 26.08 118.157 25.872C118.013 25.648 117.941 25.368 117.941 25.032C117.941 24.68 118.037 24.4 118.229 24.192C118.437 23.984 118.717 23.88 119.069 23.88C119.229 23.88 119.349 23.888 119.429 23.904C119.813 23.968 120.109 24.008 120.317 24.024C120.525 22.776 120.821 21.104 121.205 19.008C121.301 18.464 121.517 18.08 121.853 17.856C122.205 17.616 122.613 17.496 123.077 17.496C123.605 17.496 123.981 17.6 124.205 17.808C124.445 18 124.565 18.312 124.565 18.744C124.565 19 124.549 19.208 124.517 19.368L123.725 24.024ZM133.846 33.12C132.854 33.12 132.062 32.76 131.47 32.04C130.878 31.32 130.582 30.376 130.582 29.208C130.582 27.928 130.878 26.72 131.47 25.584C132.062 24.432 132.846 23.512 133.822 22.824C134.814 22.12 135.862 21.768 136.966 21.768C137.318 21.768 137.55 21.84 137.662 21.984C137.79 22.112 137.894 22.352 137.974 22.704C138.31 22.64 138.662 22.608 139.03 22.608C139.814 22.608 140.206 22.888 140.206 23.448C140.206 23.784 140.086 24.584 139.846 25.848C139.478 27.688 139.294 28.968 139.294 29.688C139.294 29.928 139.35 30.12 139.462 30.264C139.59 30.408 139.75 30.48 139.942 30.48C140.246 30.48 140.614 30.288 141.046 29.904C141.478 29.504 142.062 28.864 142.798 27.984C142.99 27.76 143.206 27.648 143.446 27.648C143.654 27.648 143.814 27.744 143.926 27.936C144.054 28.128 144.118 28.392 144.118 28.728C144.118 29.368 143.966 29.864 143.662 30.216C143.006 31.032 142.31 31.72 141.574 32.28C140.838 32.84 140.126 33.12 139.438 33.12C138.91 33.12 138.422 32.944 137.974 32.592C137.542 32.224 137.214 31.728 136.99 31.104C136.158 32.448 135.11 33.12 133.846 33.12ZM134.71 30.696C135.062 30.696 135.398 30.488 135.718 30.072C136.038 29.656 136.27 29.104 136.414 28.416L137.302 24C136.63 24.016 136.006 24.272 135.43 24.768C134.87 25.248 134.422 25.888 134.086 26.688C133.75 27.488 133.582 28.336 133.582 29.232C133.582 29.728 133.678 30.096 133.87 30.336C134.078 30.576 134.358 30.696 134.71 30.696ZM146.752 33.12C145.184 33.12 143.96 32.68 143.08 31.8C142.216 30.904 141.784 29.728 141.784 28.272C141.784 26.976 142.04 25.84 142.552 24.864C143.064 23.888 143.728 23.136 144.544 22.608C145.36 22.08 146.216 21.816 147.112 21.816C147.992 21.816 148.672 22.08 149.152 22.608C149.648 23.12 149.896 23.784 149.896 24.6C149.896 25.272 149.744 25.84 149.44 26.304C149.152 26.768 148.768 27 148.288 27C147.984 27 147.736 26.928 147.544 26.784C147.368 26.64 147.28 26.44 147.28 26.184C147.28 26.072 147.296 25.944 147.328 25.8C147.36 25.656 147.384 25.552 147.4 25.488C147.48 25.248 147.52 25.024 147.52 24.816C147.52 24.608 147.464 24.448 147.352 24.336C147.256 24.224 147.112 24.168 146.92 24.168C146.552 24.168 146.208 24.336 145.888 24.672C145.568 24.992 145.312 25.432 145.12 25.992C144.928 26.552 144.832 27.168 144.832 27.84C144.832 29.696 145.64 30.624 147.256 30.624C147.912 30.624 148.616 30.408 149.368 29.976C150.136 29.528 150.888 28.864 151.624 27.984C151.816 27.76 152.032 27.648 152.272 27.648C152.48 27.648 152.64 27.744 152.752 27.936C152.88 28.128 152.944 28.392 152.944 28.728C152.944 29.336 152.792 29.832 152.488 30.216C151.736 31.144 150.832 31.864 149.776 32.376C148.736 32.872 147.728 33.12 146.752 33.12ZM161.204 30.504C161.86 30.632 162.188 30.992 162.188 31.584C162.188 31.984 162.004 32.344 161.636 32.664C161.284 32.968 160.772 33.12 160.1 33.12C158.948 33.12 158.004 32.768 157.268 32.064C156.548 31.344 156.188 30.408 156.188 29.256C156.188 28.632 156.508 28.184 157.148 27.912C157.852 27.608 158.356 27.288 158.66 26.952C158.964 26.6 159.116 26.176 159.116 25.68C159.116 25.392 159.052 25.176 158.924 25.032C158.812 24.888 158.668 24.816 158.492 24.816C158.06 24.816 157.58 25.128 157.052 25.752C156.54 26.376 156.06 27.184 155.612 28.176C155.164 29.152 154.812 30.16 154.556 31.2C154.38 31.952 154.172 32.464 153.932 32.736C153.708 32.992 153.348 33.12 152.852 33.12C152.356 33.12 151.988 32.944 151.748 32.592C151.524 32.224 151.372 31.664 151.292 30.912C151.212 30.16 151.172 29.056 151.172 27.6C151.172 25.136 151.42 22.568 151.916 19.896C152.428 17.224 153.172 14.984 154.148 13.176C155.14 11.352 156.324 10.44 157.7 10.44C158.436 10.44 159.028 10.76 159.476 11.4C159.94 12.024 160.172 12.84 160.172 13.848C160.172 15.464 159.7 17.144 158.756 18.888C157.812 20.616 156.276 22.64 154.148 24.96C154.1 25.792 154.076 26.648 154.076 27.528C154.844 25.528 155.724 24.08 156.716 23.184C157.708 22.272 158.636 21.816 159.5 21.816C160.3 21.816 160.94 22.088 161.42 22.632C161.916 23.176 162.164 23.848 162.164 24.648C162.164 25.528 161.94 26.336 161.492 27.072C161.044 27.808 160.276 28.464 159.188 29.04C159.284 29.52 159.476 29.856 159.764 30.048C160.068 30.224 160.548 30.376 161.204 30.504ZM157.196 12.816C156.908 12.816 156.588 13.232 156.236 14.064C155.884 14.88 155.54 15.992 155.204 17.4C154.884 18.792 154.62 20.312 154.412 21.96C155.404 20.792 156.22 19.52 156.86 18.144C157.516 16.768 157.844 15.52 157.844 14.4C157.844 13.888 157.788 13.496 157.676 13.224C157.564 12.952 157.404 12.816 157.196 12.816Z" fill="#404040"/>
<g clip-path="url(#clip0)">
<path d="M23.0542 25.4668L16.115 22.5647C15.6897 22.3905 15.2057 22.4363 14.8225 22.6893C14.4375 22.9442 14.2084 23.3732 14.2084 23.8333V34.375C14.2084 34.9433 14.5567 35.453 15.0865 35.6565C15.2479 35.7188 15.4165 35.75 15.5834 35.75C15.9629 35.75 16.335 35.5923 16.6009 35.299L23.5419 27.6595C23.8425 27.3295 23.9635 26.873 23.8664 26.4367C23.7692 26.0022 23.4667 25.6392 23.0542 25.4668Z" fill="#2196F3"/>
<path d="M43.5599 0.366941C43.1749 0.00944098 42.6176 -0.0968924 42.1263 0.0937743L0.876279 16.1354C0.346446 16.3408 -0.00188717 16.8523 -5.38332e-05 17.4224C0.0017795 17.9926 0.35378 18.5004 0.885446 18.7021L33.4271 31.0771C33.5848 31.1358 33.7516 31.1669 33.9166 31.1669C34.1238 31.1669 34.3309 31.1211 34.5216 31.0276C34.8644 30.8589 35.1211 30.5583 35.2329 30.1953L43.9413 1.77861C44.0934 1.27444 43.9468 0.726274 43.5599 0.366941Z" fill="#64B5F6"/>
<path d="M14.2083 23.8333L34.8333 9.16666L19.4021 26.2772L14.2083 23.8333Z" fill="#2196F3"/>
<path d="M15.0993 36.399C14.7528 36.399 14.399 36.3 14.0873 36.0928C13.244 35.5336 13.013 34.3951 13.574 33.5518C14.091 32.7708 14.3898 32.2006 14.41 32.1603C14.8757 31.262 15.9757 30.91 16.8758 31.3701C17.776 31.8303 18.1317 32.934 17.6733 33.8341C17.6733 33.8341 17.3012 34.5656 16.6302 35.5776C16.2763 36.1111 15.6952 36.399 15.0993 36.399Z" fill="#2196F3"/>
<path d="M7.79168 41.7083C6.66784 41.7083 5.70168 41.5763 4.84184 41.305C3.87568 41.0007 3.33851 39.9703 3.64284 39.006C3.94718 38.038 4.97934 37.5045 5.94184 37.807C6.69901 38.0453 7.80268 38.2488 8.99068 37.818C9.94034 37.4788 10.9927 37.9647 11.3392 38.918C11.6838 39.8695 11.1925 40.9218 10.2392 41.2665C9.43068 41.5598 8.60568 41.7083 7.79168 41.7083Z" fill="#2196F3"/>
<path d="M1.8865 35.2935C0.9295 35.2935 0.122833 34.551 0.0586667 33.5793C0.0201667 32.9688 0 32.318 0 31.625C0 30.6112 0.8195 29.7917 1.83333 29.7917C2.84717 29.7917 3.66667 30.6112 3.66667 31.625C3.66667 32.2318 3.68317 32.8057 3.718 33.341C3.784 34.3512 3.01767 35.2238 2.0075 35.2898C1.96717 35.2917 1.92867 35.2935 1.8865 35.2935Z" fill="#2196F3"/>
</g>
<defs>
<clipPath id="clip0">
<rect width="44" height="44" fill="white"/>
</clipPath>
</defs>
</svg>
