<?xml version="1.0" encoding="utf-8"?>
<!-- Generator: Adobe Illustrator 21.1.0, SVG Export Plug-In . SVG Version: 6.00 Build 0)  -->
<svg version="1.1" id="Layer_1" xmlns="http://www.w3.org/2000/svg" xmlns:xlink="http://www.w3.org/1999/xlink" x="0px" y="0px"
	 viewBox="0 0 825.8 198.6" style="enable-background:new 0 0 825.8 198.6;" xml:space="preserve">
<style type="text/css">
	.st0{fill:#869AB8;}
</style>
<g id="Layer_2">
	<g id="Layer_1-2">
		<path class="st0" d="M14.8,149V87.9H0V70.6h14.8v-5.3c0-21.3,14.3-31.1,30.3-31.1c7.4,0.1,14.5,2.4,20.6,6.5l-7.3,14.6
			c-4.2-2.7-8.1-4.2-12.1-4.2c-6.8,0-11.9,4.5-11.9,14.2v5.3h23.4v17.3H34.5V149L14.8,149z M93.2,47.1c0,15.3-23.2,15.3-23.2,0
			S93.2,31.8,93.2,47.1z M71.8,69.2V149h19.7V69.2H71.8z M125.9,116.2c1.3,9.8,9.8,16.9,23.7,16.9c7.3,0,16.8-2.7,21.3-7.4
			l12.6,12.4c-8.4,8.7-22.1,12.9-34.2,12.9c-27.4,0-43.7-16.9-43.7-42.4c0-24.2,16.5-41.6,42.3-41.6c26.6,0,43.2,16.5,40.1,49.2
			L125.9,116.2z M169.1,100c-1.3-10.3-9.4-15.5-20.6-15.5c-10.6,0-19.4,5.2-22.3,15.5H169.1z M222.7,36.3V149h-19.5V36.3H222.7z
			 M322.5,36.3V149h-18.3l-1.3-11c-6.1,9.5-16,12.7-25.6,12.7c-23.4,0-41-15.5-41-41.6c0-27.4,17.3-41.6,40.5-41.6
			c8.4,0,21.4,4.5,26.1,12.7v-44L322.5,36.3z M255.9,109.1c0,13.9,10,23.4,22.6,23.4s23-9,23-23.4c0.3-12.5-9.6-22.9-22.1-23.2
			c0,0,0,0,0,0h-0.9C265.9,85.9,255.9,94.8,255.9,109.1L255.9,109.1z M361,47.1c0,15.3-23.2,15.3-23.2,0S361,31.8,361,47.1z
			 M339.6,69.2V149h19.7V69.2H339.6z M435.5,149v-41.7c0-12.1-6.6-21.3-19.2-21.3c-12.1,0-20.3,10.1-20.3,22.3v40.6h-19.5V69.3h17.6
			l1.3,10.8c8.1-7.9,16.1-11.9,26.1-11.9c18.7,0,33.7,14,33.7,39V149L435.5,149z M524,90.6c-5.6-5.3-12.1-7.1-19.7-7.1
			c-9.3,0-14.5,2.9-14.5,7.9s4.7,8.1,14.8,8.7c15,1,34,4.4,34,25.5c0,14-11.4,26.1-34.2,26.1c-12.6,0-25.2-2.1-36.8-14.2l9.7-14
			c5.6,6.3,18.5,11,27.4,11.1c7.4,0.2,14.3-3.7,14.3-9.5c0-5.5-4.5-7.7-15.8-8.4c-15-1.1-33-6.6-33-24.7c0-18.4,19-24.8,33.5-24.8
			c12.4,0,21.8,2.4,31,10.5L524,90.6z"/>
		<path class="st0" d="M551.3,69.2h19.7V149h-19.7V69.2z"/>
		<path class="st0" d="M651.1,61.4l14.5,11l-8.9,11.3c6.1,6.9,8.4,14.8,8.4,23.5c0,9.8-3.7,23.7-16.8,29.7
			c13.2,6.6,16.5,16.1,16.5,26.3c0,21.9-16.8,35.5-39.8,35.5s-40.3-14-40.3-35.5h19.5c0,10.3,9.5,17.1,20.8,17.1s20.2-6.1,20.2-17.1
			s-10.3-16-20.2-16c-24.8,0-40.3-15.2-40.3-40s18-40.3,40.3-40.3c6.3,0,12.7,0.8,18.2,4.5L651.1,61.4z M604.2,107.2
			c0,13.9,9.3,22.1,20.8,22.1s20.6-8.4,20.6-22.1s-9.3-22.4-20.6-22.4S604.1,93.4,604.2,107.2L604.2,107.2z M698.9,36.1v44.2
			c7.1-9.2,15.8-11.9,24.8-11.9c22.6,0,32.6,15.3,32.6,38.7V149h-19.6v-41.9c0-14.5-7.6-20.6-18.1-20.6c-11.6,0-19.7,9.8-19.7,21.8
			V149h-19.7V36.1H698.9z M800.7,47.1v22.6h21.9v16.9h-22.1v34.3c0,7.6,4.2,11.3,10.3,11.3c3.3-0.1,6.6-0.9,9.5-2.4l5.5,16.8
			c-5.2,2.2-10.7,3.3-16.3,3.4c-17.3,0.7-28.5-9.2-28.5-29V86.6h-14.8V69.7H781V49.2L800.7,47.1z"/>
		<circle class="st0" cx="519.5" cy="44.9" r="8.3"/>
		<circle class="st0" cx="539.9" cy="22.8" r="10.2"/>
		<circle class="st0" cx="560.2" cy="46.8" r="13.2"/>
		<circle class="st0" cx="586.6" cy="15.7" r="15.7"/>
		<path class="st0" d="M518.3,43.8l20.3-22.2l2.4,2.2l-20.3,22.2L518.3,43.8z"/>
		<path class="st0" d="M559.5,43.8l20.3-22.2l2.4,2.2l-20.3,22.2L559.5,43.8z"/>
		<path class="st0" d="M539,23.8l2.4-2.2l20.3,22.2l-2.4,2.2L539,23.8z"/>
	</g>
</g>
</svg>
