<?xml version="1.0" encoding="utf-8"?>
<!-- Generator: Adobe Illustrator 21.1.0, SVG Export Plug-In . SVG Version: 6.00 Build 0)  -->
<svg version="1.1" id="Layer_1" xmlns="http://www.w3.org/2000/svg" xmlns:xlink="http://www.w3.org/1999/xlink" x="0px" y="0px"
	 viewBox="0 0 174 50" style="enable-background:new 0 0 174 50;" xml:space="preserve">
<style type="text/css">
	.st0{fill:#869AB8;}
</style>
<path class="st0" d="M62.1,9.3c-2.5,0-4.6,0.7-6.2,2.3c-1.5,1.5-2.3,3.5-2.3,6.1v2.1H50v4.9h3.7V40h5.7V24.7H64v-4.9h-4.7v-2.2
	c0-1.9,1.4-3.2,3.4-3.2c0.4,0,0.9,0,1.3,0.1V9.4C63.5,9.4,62.8,9.3,62.1,9.3z"/>
<path class="st0" d="M71.6,9.6h-5.7V40h5.7V9.6z"/>
<path class="st0" d="M78.5,9.7c-2.9-0.2-4.6,3.9-2.4,5.9c1.3,1.3,3.6,1.3,4.9,0c0.7-0.7,1-1.5,1-2.4C82,11.2,80.5,9.7,78.5,9.7z
	 M81.4,19.7h-5.7V40h5.7V19.7z"/>
<path class="st0" d="M94.1,19.3c-2.9,0-5.2,1-7.1,2.9c-1.8,1.9-2.7,4.5-2.7,7.6c0,3.2,0.9,5.7,2.7,7.6c1.8,1.9,4.2,2.9,7.1,2.9
	c2.5,0,4.4-0.7,5.7-2.2V50h5.7V19.7h-5.4v2.1C98.9,20.2,96.9,19.3,94.1,19.3z M95.1,24.2c2.9,0,4.8,2,4.8,5.2v0.9
	c0,3.2-1.9,5.2-4.8,5.2c-2.9,0-4.9-2.1-4.9-5.6S92.1,24.2,95.1,24.2z"/>
<path class="st0" d="M121,19.3c-2.7,0-4.7,0.8-6,2.5v-2.1h-5.4V50h5.7V38.3c1.3,1.5,3.2,2.2,5.7,2.2c2.9,0,5.3-1,7.1-2.9
	c1.8-1.9,2.7-4.5,2.7-7.6c0-3.2-0.9-5.7-2.7-7.6C126.3,20.3,123.9,19.3,121,19.3z M120.1,24.2c2.9,0,4.9,2.1,4.9,5.6s-2,5.6-4.9,5.6
	c-2.9,0-4.8-2-4.8-5.2v-0.9C115.3,26.2,117.3,24.2,120.1,24.2z"/>
<path class="st0" d="M141.7,19.3c-2.5,0-4.5,0.7-6.1,2.2c-1.6,1.5-2.4,3.1-2.4,5l5.7,0.2c0-1.5,1-2.7,2.8-2.7c1.8,0,2.6,1.1,2.6,3.1
	v0.8l-3.6,0.2c-5.4,0.2-8.1,2.3-8.1,6.2c0,3.9,2.5,6,6.7,6c2.1,0,3.8-0.7,5.2-2.1V40h5.5V27.5C150.1,22.2,147.2,19.3,141.7,19.3z
	 M144.4,32.7c0,2.1-1.5,3.3-3.6,3.3c-1.6,0-2.4-0.6-2.4-1.8c0-1.3,1-2,2.9-2.1l3.1-0.2V32.7z"/>
<path class="st0" d="M173.1,19.7h-6.3l-4.6,12.1l-4.7-12.1h-6.3l7.9,18.5L153.9,50h6.2L173.1,19.7z"/>
<path class="st0" d="M0,4c0-2.7,2.1-4.4,4.6-3.8l27.8,6.5c2.6,0.6,4.6,2.5,4.6,4.3v27.4c0,1.8-2.1,3.7-4.6,4.3L4.6,49.2
	C2.1,49.8,0,48.1,0,45.4V4z M7.9,14c0-2.2,1.8-3.7,4-3.4L24,12.4c2.2,0.3,4,2,4,3.7c0,1.7-1.8,3.1-4,2.9l-12.1-0.8
	C9.7,18.1,7.9,16.2,7.9,14z M7.7,24.7c0-2.3,1.9-4,4.2-4l12.5,0.5c2.3,0.1,4.2,1.6,4.2,3.4c0,1.8-1.9,3.4-4.2,3.4l-12.5,0.5
	C9.5,28.7,7.7,27,7.7,24.7z M12.5,39.5c2.6-0.4,4.6-2.6,4.6-4.9s-2.1-4-4.6-3.9C10,31,7.9,33.1,7.9,35.7C7.9,38.2,10,39.9,12.5,39.5
	z"/>
</svg>
