<?xml version="1.0" encoding="utf-8"?>
<!-- Generator: Adobe Illustrator 21.1.0, SVG Export Plug-In . SVG Version: 6.00 Build 0)  -->
<svg version="1.1" id="Layer_1" xmlns="http://www.w3.org/2000/svg" xmlns:xlink="http://www.w3.org/1999/xlink" x="0px" y="0px"
	 viewBox="0 0 839.1 172.1" style="enable-background:new 0 0 839.1 172.1;" xml:space="preserve">
<style type="text/css">
	.st0{fill:#869AB8;}
</style>
<path class="st0" d="M0,12.7C0,10.1,2.2,8,4.8,8h14.3c2.6,0,4.8,2.1,4.8,4.8v86c0,2.6,2.1,4.8,4.8,4.8c0,0,0,0,0,0h62.2
	c2.6,0,4.8-2.1,4.8-4.8l0,0V84.5c0-2.6-2.1-4.8-4.8-4.8H62.2c-7.9,0-14.3-6.4-14.3-14.3v-43C47.8,14.4,54.2,8,62.2,8l0,0h43
	c7.9,0,14.3,6.4,14.3,14.3v90.8c0,7.9-6.4,14.3-14.3,14.3h0H14.3c-7.9,0-14.3-6.4-14.3-14.3l0,0L0,12.7z M95.6,36.6
	c0-2.6-2.1-4.8-4.8-4.8H71.7V51c0,2.6,2.1,4.8,4.8,4.8h19.1V36.6z"/>
<path class="st0" d="M170.6,0v132.9h23V0H170.6z M306.8,94.3c3.6-38.6-16-58-47.3-58c-30.4,0-49.8,20.5-49.8,49
	c0,30,19.2,50,51.5,50c14.3,0,30.4-4.9,40.3-15.2l-14.8-14.6c-5.3,5.5-16.5,8.8-25.1,8.8c-16.4,0-26.4-8.4-28-20L306.8,94.3z
	 M234,75.1c3.4-12.2,13.7-18.3,26.2-18.3c13.3,0,22.8,6.1,24.3,18.3H234z M416.9,132.9V83.7c0-29.5-17.7-46-39.7-46
	c-11.8,0-21.3,4.8-30.8,14.1L344.8,39h-20.7v93.9h23V85c0-14.3,9.7-26.2,24-26.2c14.8,0,22.6,10.8,22.6,25.1v49.1L416.9,132.9z
	 M482.3,58.6c14.6,0,27.2,11,27.2,27.4c0,16.9-12.5,27.6-27.2,27.6c-14.8,0-26.6-11.2-26.6-27.6C455.7,69,467.4,58.6,482.3,58.6z
	 M511,0v51.9c-5.5-9.7-20.9-15-30.8-15c-27.4,0-47.7,16.7-47.7,49.1c0,30.8,20.7,49,48.3,49c11.4,0,23-3.8,30.2-15l1.5,12.9h21.7V0
	H511z M628.5,48.9c-10.8-9.5-21.9-12.4-36.5-12.4c-17.1,0-39.5,7.6-39.5,29.3c0,21.3,21.1,27.8,38.8,29.1
	c13.3,0.8,18.6,3.4,18.6,9.9c0,6.8-8.2,11.4-16.9,11.2c-10.5-0.2-25.7-5.7-32.3-13.1l-11.4,16.5c13.7,14.3,28.5,16.7,43.3,16.7
	c26.8,0,40.3-14.3,40.3-30.8c0-24.9-22.4-28.9-40.1-30c-12-0.8-17.5-4.2-17.5-10.3c0-5.9,6.1-9.3,17.1-9.3c8.9,0,16.5,2.1,23.2,8.4
	L628.5,48.9z M693,112.8c-15.8,0-26.6-12-26.6-26.6s9.9-26.6,26.6-26.6s26.6,12,26.6,26.6S708.8,112.8,693,112.8z M744.9,172.1V39.2
	h-21.6l-1.5,12.9c-7.2-10.5-19.8-15-30.4-15c-28.9,0-48.1,21.5-48.1,49.1c0,27.4,17.3,49,47.3,49c9.9,0,24.5-3,31.2-13.3v50.2
	L744.9,172.1z M765.3,39.2v93.7h23.2V83.5c0-17.3,11.2-23.8,23.4-23.8c7.6,0,12,2.1,16.7,6.1L839,45.6c-5.1-5.1-14.5-8.9-24.2-8.9
	c-9.5,0-19.2,1.7-26.4,13.3l-1.7-10.8L765.3,39.2z"/>
</svg>
