<?xml version="1.0" encoding="utf-8"?>
<!-- Generator: Adobe Illustrator 21.1.0, SVG Export Plug-In . SVG Version: 6.00 Build 0)  -->
<svg version="1.1" id="Layer_1" xmlns="http://www.w3.org/2000/svg" xmlns:xlink="http://www.w3.org/1999/xlink" x="0px" y="0px"
	 viewBox="0 0 3749 900" style="enable-background:new 0 0 3749 900;" xml:space="preserve">
<style type="text/css">
	.st0{fill:#869AB8;}
	.st1{opacity:0.15;}
	.st2{fill:#FFFFFF;}
</style>
<path class="st0" d="M450.1,900c248.6,0,450.1-201.5,450.1-450S698.7,0,450.1,0C201.5,0,0,201.5,0,450S201.5,900,450.1,900z
	 M612.5,685.5c-46.2,32.1-102.3,50.9-162.8,50.9c-158,0-286.1-128.2-286.1-286.4s128.1-286.4,286.1-286.4S735.8,291.8,735.8,450
	c0,35.3-6.4,69.1-18.1,100.3c-45.3-16.4-95.7-21.3-141.9-10.2C594.2,514.4,605,483,605,449c0-86.4-70-156.5-156.3-156.5
	c-86.3,0-156.3,70.1-156.3,156.5s70,156.5,156.3,156.5c19.9,0,38.9-3.7,56.4-10.5C548.9,620.4,586.7,656.8,612.5,685.5z
	 M761.5,646.7c-20.4,32.2-45.7,61.1-74.8,85.5c-31.9-42.1-96.3-105.6-167.5-146.1C584.9,536.8,686.8,568.3,761.5,646.7z"/>
<g class="st1">
	<path class="st2" d="M863.1,270.8C793.9,111.6,635.3,0.3,450.7,0C264,0.3,103.9,114.2,36,276.3c40.9,38.8,87.2,71.9,137.8,97.9
		C207,252.9,317.9,163.6,449.7,163.6c130.8,0,241.1,87.8,275.2,207.8C775.8,344.6,822.3,310.6,863.1,270.8z"/>
	<path class="st2" d="M602.3,419.7c-13.7-72.4-77.3-127.2-153.6-127.2c-76.7,0-140.5,55.3-153.8,128.2
		c48.4,12.7,99.3,19.5,151.7,19.5C500.5,440.2,552.7,433,602.3,419.7z"/>
</g>
<path class="st0" d="M1347.2,218c-63.7,0-116,21.8-157,64.5c-40.1,42.7-60.2,99.4-60.2,170.1c0,70.6,20.1,127.3,60.2,170.1
	c41,42.7,93.3,64.5,157,64.5c56.7,0,98.5-15.7,127.3-48V900h126.5V226.7h-119.5v47.1C1453.6,236.3,1409.1,218,1347.2,218z
	 M1368.1,327c63.7,0,106.4,44.5,106.4,115.1v20.9c0,70.6-42.7,115.1-106.4,115.1c-65.4,0-109-46.2-109-125.6
	C1259.1,373.3,1302.7,327,1368.1,327z"/>
<path class="st0" d="M2081.8,226.7h-127.3v254.7c0,52.3-28.8,87.2-76.7,87.2c-48,0-72.4-28.8-72.4-85.5V226.7H1678v283.4
	c0,110.8,62.8,177,166.6,177c54.9,0,94.2-18.3,116.9-54.9v45.3h120.3V226.7z"/>
<path class="st0" d="M2225.4,2.6c-63.7-3.5-102.9,87.2-54.1,130.8c28.8,28.8,79.4,28.8,108.1,0c14.8-14.8,22.7-33.1,22.7-54.1
	C2302.2,36.6,2268.2,2.6,2225.4,2.6z M2289.1,226.7h-127.3v450.9h127.3V226.7z"/>
<path class="st0" d="M2816.9,0h-126.5v266c-27.9-32.3-70.6-48-127.3-48c-63.7,0-116,21.8-157,64.5c-40.1,42.7-60.2,99.4-60.2,170.1
	c0,70.6,20.1,127.3,60.2,170.1c41,42.7,93.3,64.5,157,64.5c60.2,0,109-23.5,134.3-55.8v46.2h119.5V0z M2584,327
	c63.7,0,106.4,44.5,106.4,115.1v20.1c0,72.4-42.7,115.1-106.4,115.1c-65.4,0-109-45.3-109-124.7C2475,373.3,2518.6,327,2584,327z"/>
<path class="st0" d="M3075.4,218c-54.9,0-100.3,16.6-136.1,49.7c-34.9,32.3-52.3,69.8-52.3,111.6l127.3,5.2
	c0-32.3,21.8-59.3,62.8-59.3c39.3,0,58.4,23.5,58.4,69.8v17.4l-80.2,4.4c-120.3,5.2-180.5,50.6-180.5,136.9s56.7,133.4,150,133.4
	c47.1,0,85.5-15.7,115.1-46.2v36.6h123V399.4C3262.9,280.8,3197.5,218,3075.4,218z M3135.6,515.4c0,46.2-33.1,73.3-81.1,73.3
	c-34.9,0-52.3-14-52.3-41c0-29.7,21.8-45.3,65.4-47.1l68-4.4V515.4z"/>
<path class="st0" d="M3744.9,226.7h-144.8l-83.7,137.8l-83.7-137.8h-144.8L3426.6,450l-140.4,227.6h144.8l85.5-140.4l86.3,140.4
	h145.6l-143-227.6L3744.9,226.7z"/>
</svg>
